RBDS028runT45_grf
version=1
nRows=12
nColumns=19
inDegrees=no
endheader
time	ground_force_r_vx	ground_force_r_vy	ground_force_r_vz	ground_force_r_px	ground_force_r_py	ground_force_r_pz	ground_force_r_mx	ground_force_r_my	ground_force_r_mz	ground_force_l_vx	ground_force_l_vy	ground_force_l_vz	ground_force_l_px	ground_force_l_py	ground_force_l_pz	ground_force_l_mx	ground_force_l_my	ground_force_l_mz
     22.49800000	      0.00000000	      0.00000000	      0.00000000	      0.00000000	      0.00000000	      0.00000000	      0.00000000	      0.00000000	      0.00000000	   -182.83047390	   1510.75579366	     57.63894478	      2.00148539	      0.00000000	      0.93931978	      0.00000000	      1.24565807	     -0.00000000
     22.49900000	      0.00000000	      0.00000000	      0.00000000	      0.00000000	      0.00000000	      0.00000000	      0.00000000	      0.00000000	      0.00000000	   -177.83013807	   1515.03216109	     59.21097099	      1.99801065	      0.00000000	      0.93921275	      0.00000000	      1.36815238	     -0.00000000
     22.50000000	      0.00000000	      0.00000000	      0.00000000	      0.00000000	      0.00000000	      0.00000000	      0.00000000	      0.00000000	      0.00000000	   -172.82980224	   1519.30852853	     60.78299719	      1.99453591	      0.00000000	      0.93910572	      0.00000000	      1.49064669	     -0.00000000
     22.50100000	      0.00000000	      0.00000000	      0.00000000	      0.00000000	      0.00000000	      0.00000000	      0.00000000	      0.00000000	      0.00000000	   -167.11895276	   1521.86425564	     62.03362855	      1.99097667	      0.00000000	      0.93900502	      0.00000000	      1.59166966	     -0.00000000
     22.50200000	      0.00000000	      0.00000000	      0.00000000	      0.00000000	      0.00000000	      0.00000000	      0.00000000	      0.00000000	      0.00000000	   -161.40810328	   1524.41998276	     63.28425991	      1.98741743	      0.00000000	      0.93890432	      0.00000000	      1.69269264	     -0.00000000
     22.50300000	      0.00000000	      0.00000000	      0.00000000	      0.00000000	      0.00000000	      0.00000000	      0.00000000	      0.00000000	      0.00000000	   -155.69725380	   1526.97570987	     64.53489126	      1.98385820	      0.00000000	      0.93880362	      0.00000000	      1.79371561	     -0.00000000
     22.50400000	      0.00000000	      0.00000000	      0.00000000	      0.00000000	      0.00000000	      0.00000000	      0.00000000	      0.00000000	      0.00000000	   -149.56826061	   1528.40468751	     65.54275240	      1.98024670	      0.00000000	      0.93871506	      0.00000000	      1.87815533	     -0.00000000
     22.50500000	      0.00000000	      0.00000000	      0.00000000	      0.00000000	      0.00000000	      0.00000000	      0.00000000	      0.00000000	      0.00000000	   -143.23019556	   1529.27029041	     66.42922843	      1.97660909	      0.00000000	      0.93863257	      0.00000000	      1.95430341	     -0.00000000
     22.50600000	      0.00000000	      0.00000000	      0.00000000	      0.00000000	      0.00000000	      0.00000000	      0.00000000	      0.00000000	      0.00000000	   -136.89213051	   1530.13589331	     67.31570445	      1.97297147	      0.00000000	      0.93855008	      0.00000000	      2.03045150	     -0.00000000
     22.50700000	      0.00000000	      0.00000000	      0.00000000	      0.00000000	      0.00000000	      0.00000000	      0.00000000	      0.00000000	      0.00000000	   -130.37670826	   1530.44575274	     68.07081796	      1.96930990	      0.00000000	      0.93847699	      0.00000000	      2.09757996	     -0.00000000
     22.50800000	      0.00000000	      0.00000000	      0.00000000	      0.00000000	      0.00000000	      0.00000000	      0.00000000	      0.00000000	      0.00000000	   -123.50657161	   1529.64412524	     68.56320642	      1.96560045	      0.00000000	      0.93842273	      0.00000000	      2.14666916	     -0.00000000
     22.50900000	      0.00000000	      0.00000000	      0.00000000	      0.00000000	      0.00000000	      0.00000000	      0.00000000	      0.00000000	      0.00000000	   -116.63643497	   1528.84249774	     69.05559488	      1.96189100	      0.00000000	      0.93836847	      0.00000000	      2.19575836	     -0.00000000
